<svg width="23" height="22" viewBox="0 0 23 22" fill="none" xmlns="http://www.w3.org/2000/svg">
<path opacity="0.75" d="M21.0861 1.58928C20.9011 1.40207 20.6806 1.25355 20.4376 1.15238C20.1945 1.05122 19.9338 0.999418 19.6705 1H14.1827C13.8227 1.00068 13.4775 1.14328 13.222 1.39687L2.25133 12.3654C1.87699 12.7405 1.66675 13.2488 1.66675 13.7787C1.66675 14.3087 1.87699 14.817 2.25133 15.1921L7.47442 20.4152C7.84962 20.7897 8.35809 21 8.88822 21C9.41835 21 9.92682 20.7897 10.302 20.4152L21.2683 9.45114C21.5224 9.19604 21.6655 8.85095 21.6665 8.49089V2.99996C21.6681 2.73809 21.6176 2.47851 21.518 2.23633C21.4184 1.99414 21.2716 1.77419 21.0861 1.58928V1.58928ZM17.3809 6.71415C17.0983 6.71415 16.8221 6.63037 16.5872 6.4734C16.3523 6.31643 16.1692 6.09332 16.0611 5.83229C15.953 5.57126 15.9247 5.28403 15.9798 5.00692C16.0349 4.72981 16.171 4.47527 16.3707 4.27549C16.5705 4.0757 16.8251 3.93965 17.1022 3.88453C17.3793 3.82941 17.6665 3.8577 17.9275 3.96582C18.1886 4.07394 18.4117 4.25704 18.5687 4.49196C18.7256 4.72688 18.8094 5.00308 18.8094 5.28561C18.8094 5.66449 18.6589 6.02784 18.391 6.29574C18.1231 6.56364 17.7597 6.71415 17.3809 6.71415Z" stroke="#FC8019" stroke-width="1.5"/>
</svg>
